<svg width="350" height="176" viewBox="0 0 350 176" fill="none" xmlns="http://www.w3.org/2000/svg">
<path fill-rule="evenodd" clip-rule="evenodd" d="M9.32805 175.631H349.504C347.067 149.07 338.743 123.975 331.898 115.232C323.068 103.954 317.134 105.991 309.992 108.442C305.036 110.144 299.499 112.045 292.009 109.833C283.396 107.289 279.763 88.0588 275.94 67.8217C271.647 45.1035 267.116 21.1161 255.029 18.0407C240.629 14.3766 232.828 31.8221 226.74 45.4363C223.167 53.4276 220.184 60.0989 216.802 60.4062C213.096 60.743 211.575 53.226 209.637 43.6431C206.795 29.5932 203.055 11.1026 190.21 6.41096C177.796 1.87693 172.926 12.2872 167.956 22.9116C164.275 30.7792 160.54 38.7642 153.645 40.8848C146.615 43.0471 143.104 37.0015 138.431 28.954C132.331 18.4513 124.251 4.53878 103.785 1.01138C101.929 0.691599 100.201 0.538142 98.5918 0.538086C69.26 0.537073 79.6458 51.5198 84.474 75.2206C84.5409 75.5488 84.6067 75.8718 84.6713 76.1893C88.6601 95.7937 86.3333 100.972 84.6713 101.11C82.2176 102.986 78.8215 100.812 73.706 97.5377C64.095 91.3861 48.4148 81.3499 21.5142 86.9882C-9.35834 93.459 -0.696988 139.15 9.32805 175.631Z" fill="#444089" fill-opacity="0.18"/>
</svg>
