<svg width="19" height="22" viewBox="0 0 19 22" fill="none" xmlns="http://www.w3.org/2000/svg">
<path d="M5.70547 7.97168C5.89465 7.97168 6.07608 8.04683 6.20984 8.1806C6.34361 8.31436 6.41876 8.49579 6.41876 8.68497V17.2444C6.41876 17.4336 6.34361 17.615 6.20984 17.7488C6.07608 17.8825 5.89465 17.9577 5.70547 17.9577C5.5163 17.9577 5.33487 17.8825 5.2011 17.7488C5.06734 17.615 4.99219 17.4336 4.99219 17.2444V8.68497C4.99219 8.49579 5.06734 8.31436 5.2011 8.1806C5.33487 8.04683 5.5163 7.97168 5.70547 7.97168ZM9.27191 7.97168C9.46108 7.97168 9.64251 8.04683 9.77628 8.1806C9.91005 8.31436 9.9852 8.49579 9.9852 8.68497V17.2444C9.9852 17.4336 9.91005 17.615 9.77628 17.7488C9.64251 17.8825 9.46108 17.9577 9.27191 17.9577C9.08273 17.9577 8.90131 17.8825 8.76754 17.7488C8.63377 17.615 8.55862 17.4336 8.55862 17.2444V8.68497C8.55862 8.49579 8.63377 8.31436 8.76754 8.1806C8.90131 8.04683 9.08273 7.97168 9.27191 7.97168ZM13.5516 8.68497C13.5516 8.49579 13.4765 8.31436 13.3427 8.1806C13.2089 8.04683 13.0275 7.97168 12.8383 7.97168C12.6492 7.97168 12.4677 8.04683 12.334 8.1806C12.2002 8.31436 12.1251 8.49579 12.1251 8.68497V17.2444C12.1251 17.4336 12.2002 17.615 12.334 17.7488C12.4677 17.8825 12.6492 17.9577 12.8383 17.9577C13.0275 17.9577 13.2089 17.8825 13.3427 17.7488C13.4765 17.615 13.5516 17.4336 13.5516 17.2444V8.68497Z" fill="white"/>
<path fill-rule="evenodd" clip-rule="evenodd" d="M18.5455 4.40515C18.5455 4.7835 18.3952 5.14635 18.1276 5.41389C17.8601 5.68142 17.4972 5.83172 17.1189 5.83172H16.4056V18.6709C16.4056 19.4276 16.105 20.1533 15.5699 20.6884C15.0349 21.2234 14.3091 21.524 13.5524 21.524H4.99301C4.23631 21.524 3.5106 21.2234 2.97553 20.6884C2.44046 20.1533 2.13986 19.4276 2.13986 18.6709V5.83172H1.42657C1.04822 5.83172 0.685368 5.68142 0.417834 5.41389C0.150299 5.14635 0 4.7835 0 4.40515V2.97857C0 2.60022 0.150299 2.23737 0.417834 1.96983C0.685368 1.7023 1.04822 1.552 1.42657 1.552H6.41958C6.41958 1.17365 6.56988 0.810795 6.83741 0.543261C7.10495 0.275727 7.4678 0.125427 7.84615 0.125427L10.6993 0.125427C11.0777 0.125427 11.4405 0.275727 11.708 0.543261C11.9756 0.810795 12.1259 1.17365 12.1259 1.552H17.1189C17.4972 1.552 17.8601 1.7023 18.1276 1.96983C18.3952 2.23737 18.5455 2.60022 18.5455 2.97857V4.40515ZM3.73477 5.83172L3.56643 5.91589V18.6709C3.56643 19.0492 3.71673 19.4121 3.98427 19.6796C4.2518 19.9472 4.61466 20.0975 4.99301 20.0975H13.5524C13.9308 20.0975 14.2937 19.9472 14.5612 19.6796C14.8287 19.4121 14.979 19.0492 14.979 18.6709V5.91589L14.8107 5.83172H3.73477ZM1.42657 4.40515V2.97857H17.1189V4.40515H1.42657Z" fill="white"/>
</svg>
