<svg width="20" height="21" viewBox="0 0 20 21" fill="none" xmlns="http://www.w3.org/2000/svg">
<path d="M8.94805 3.81323H2.76623C2.2978 3.81323 1.84855 3.99932 1.51732 4.33055C1.18608 4.66178 1 5.11103 1 5.57947V17.9431C1 18.4115 1.18608 18.8608 1.51732 19.192C1.84855 19.5233 2.2978 19.7093 2.76623 19.7093H15.1299C15.5983 19.7093 16.0476 19.5233 16.3788 19.192C16.71 18.8608 16.8961 18.4115 16.8961 17.9431V11.7613" stroke="white" stroke-width="2" stroke-linecap="round" stroke-linejoin="round"/>
<path d="M15.5696 2.48876C15.9209 2.13744 16.3974 1.94006 16.8943 1.94006C17.3911 1.94006 17.8676 2.13744 18.219 2.48876C18.5703 2.84009 18.7677 3.31659 18.7677 3.81344C18.7677 4.31029 18.5703 4.78679 18.219 5.13811L9.82934 13.5277L6.29688 14.4108L7.17999 10.8784L15.5696 2.48876Z" stroke="white" stroke-width="2" stroke-linecap="round" stroke-linejoin="round"/>
</svg>
