<svg width="36" height="32" viewBox="0 0 36 32" fill="none" xmlns="http://www.w3.org/2000/svg">
<path d="M21.5556 9.11111V5.55556C21.5556 4.61256 21.181 3.70819 20.5142 3.0414C19.8474 2.3746 18.943 2 18 2H5.55556C4.61256 2 3.70819 2.3746 3.0414 3.0414C2.3746 3.70819 2 4.61256 2 5.55556V26.8889C2 27.8319 2.3746 28.7362 3.0414 29.403C3.70819 30.0698 4.61256 30.4444 5.55556 30.4444H18C18.943 30.4444 19.8474 30.0698 20.5142 29.403C21.181 28.7362 21.5556 27.8319 21.5556 26.8889V23.3333" stroke="#525F7F" stroke-width="3" stroke-linecap="round" stroke-linejoin="round"/>
<path d="M9.11108 16.2222H34M34 16.2222L28.6666 10.8889M34 16.2222L28.6666 21.5556" stroke="#525F7F" stroke-width="3" stroke-linecap="round" stroke-linejoin="round"/>
</svg>
