<svg width="41" height="41" viewBox="0 0 41 41" fill="none" xmlns="http://www.w3.org/2000/svg">
<path fill-rule="evenodd" clip-rule="evenodd" d="M34.8717 34.6854C38.3598 31.0027 40.5031 26.0047 40.5031 20.5C40.5031 9.17816 31.4362 0 20.2516 0C9.06694 0 0 9.17816 0 20.5C0 25.5951 1.83625 30.2561 4.87541 33.8418C5.63814 31.5599 6.9155 29.469 8.64751 27.7157C10.357 25.9854 12.3917 24.7044 14.6117 23.9289C12.2339 22.2712 10.6719 19.4969 10.6719 16.3599C10.6719 11.2953 14.7423 7.17495 19.7455 7.17495C24.7487 7.17495 28.8192 11.2953 28.8192 16.3599C28.8192 19.4969 27.2571 22.2712 24.8794 23.9289C27.0994 24.7044 29.1341 25.9854 30.8436 27.7157C32.7869 29.683 34.1579 32.0752 34.8717 34.6854ZM32.785 36.6034C31.6858 30.3267 26.2569 25.5449 19.7455 25.5449C13.4888 25.5449 8.23167 29.9598 6.85469 35.8738C10.4249 39.0641 15.1149 41 20.2516 41C24.984 41 29.3373 39.3568 32.785 36.6034ZM19.7455 23.0625C16.0945 23.0625 13.1242 20.0557 13.1242 16.3599C13.1242 12.6641 16.0945 9.65737 19.7455 9.65737C23.3965 9.65737 26.3668 12.6641 26.3668 16.3599C26.3668 20.0557 23.3965 23.0625 19.7455 23.0625Z" fill="#9A9896"/>
</svg>
